<?xml version="1.0" encoding="utf-8"?>
<!-- Generator: Adobe Illustrator 16.0.5, SVG Export Plug-In . SVG Version: 6.00 Build 0)  -->
<!DOCTYPE svg PUBLIC "-//W3C//DTD SVG 1.1//EN" "http://www.w3.org/Graphics/SVG/1.1/DTD/svg11.dtd">
<svg version="1.1" id="Layer_1" xmlns="http://www.w3.org/2000/svg" xmlns:xlink="http://www.w3.org/1999/xlink" x="0px" y="0px"
	 width="38px" height="44px" viewBox="0 0 38 44" enable-background="new 0 0 38 44" xml:space="preserve">
<g>
	<path fill="#686470" d="M0.7,21.804c0.5,0.3,1.2,0.1,1.399-0.399L19,2.504l16.9,18.9c0.3,0.5,0.899,0.6,1.399,0.399
		c0.5-0.3,0.7-0.899,0.4-1.3L20,0.604c-0.2-0.3-0.6-0.5-1-0.5s-0.8,0.2-1,0.5L0.3,20.404C0,20.904,0.2,21.504,0.7,21.804z"/>
	<path fill="#4B4854" d="M20,22.604c-0.2-0.3-0.6-0.5-1-0.5s-0.8,0.2-1,0.5L0.3,42.404c-0.3,0.5-0.1,1.1,0.4,1.3
		c0.5,0.3,1.2,0.1,1.399-0.4l16.9-18.8l16.9,18.9c0.3,0.5,0.899,0.6,1.399,0.399c0.5-0.3,0.7-0.899,0.4-1.399L20,22.604z"/>
</g>
</svg>
